<svg width="0" height="0" class="hidden">
  <symbol xmlns="http://www.w3.org/2000/svg" viewBox="0 0 55 55" id="icon-dish-maindish">
    <path d="M47.966 46.5H7.034a5.653 5.653 0 01-4.599-2.367l-2.26-3.165a.929.929 0 01.756-1.469H54.07a.93.93 0 01.756 1.469l-2.26 3.165a5.656 5.656 0 01-4.6 2.367z" fill="#e6e6e6"></path>
    <path d="M2 39.5c0-13.807 11.193-25 25-25s25 11.193 25 25H2z" fill="#f4c44e"></path>
    <path d="M31.447 15.896l-.825-.124a24.356 24.356 0 00-7.243 0l-.825.124-.27-.79A4.897 4.897 0 0122 13.5c0-2.757 2.243-5 5-5s5 2.243 5 5c0 .523-.093 1.049-.283 1.606l-.27.79zM27 13.5c.996 0 2 .058 2.994.172A3.004 3.004 0 0027 10.5a3.004 3.004 0 00-2.994 3.172A26.335 26.335 0 0127 13.5z" fill="#f4c44e"></path>
    <path d="M22.345 20.013a1 1 0 01-.219-1.975 22.17 22.17 0 014.86-.537c.571-.029 1.014.443 1.014 1a1 1 0 01-1 .999h-.013c-1.496 0-2.982.164-4.421.488a.986.986 0 01-.221.025zM7.001 36.5a1 1 0 01-.985-1.18c1.142-6.26 4.931-11.838 10.134-14.921.476-.282 1.088-.125 1.37.351s.125 1.089-.351 1.37c-4.713 2.792-8.147 7.861-9.186 13.56a.999.999 0 01-.982.82z" fill="#fff"></path>
  </symbol>
  <symbol xmlns="http://www.w3.org/2000/svg" viewBox="0 0 57.21 57.21" id="icon-dish-salad">
    <path d="M29.046 53.605H40a1.274 1.274 0 001.092-1.932l-.01-.017c-.709-1.177-.847-2.657-.215-3.877a5.63 5.63 0 012.579-2.486c7.719-3.686 13.193-7.804 13.762-16.206a1.382 1.382 0 00-1.37-1.481H1.375c-.798 0-1.424.685-1.37 1.481.569 8.401 6.042 12.52 13.762 16.206a5.63 5.63 0 012.579 2.486c.632 1.22.494 2.7-.215 3.877l-.01.017c-.512.85.1 1.932 1.092 1.932h11.833z" fill="#e6e6e6"></path>
    <path d="M36 47.605h-8.707a1 1 0 110-2H36a1 1 0 110 2zm-11.614 0H21a1 1 0 110-2h3.386a1 1 0 110 2zm11.614 3H21a1 1 0 110-2h15a1 1 0 110 2z" fill="#fff"></path>
    <path d="M41 3.605a9 9 0 00-9 9c0 .703.089 1.384.241 2.041.507.521 1.281.7 1.959.386l.392-.181a1.737 1.737 0 012.46 1.42l.039.43a1.737 1.737 0 001.575 1.574l.43.039a1.737 1.737 0 011.42 2.46l-.181.392c-.06.129-.079.265-.105.4.255.022.511.039.771.039a9 9 0 10-.001-18z" fill="#d13834"></path>
    <path d="M49.974 13.119c-.268 4.73-4.177 8.486-8.974 8.486-.26 0-.518-.012-.773-.034-.127.658.114 1.345.682 1.745l.354.25a1.737 1.737 0 01-.001 2.84l-.353.249a1.718 1.718 0 00-.645.901l.04.049h13.389a8.955 8.955 0 002.305-6c.002-3.927-2.517-7.257-6.024-8.486z" fill="#436b1c"></path>
    <path d="M39.586 12.191a.997.997 0 01-.707-.293L36.05 9.07a.999.999 0 111.414-1.414l2.829 2.828a.999.999 0 01-.707 1.707zm5.657 5.656a.997.997 0 01-.707-.293l-2.829-2.828a.999.999 0 111.414-1.414l2.829 2.828a1 1 0 01-.707 1.707zm-2.829-5.656a.999.999 0 01-.707-1.707l2.829-2.828A.999.999 0 1145.95 9.07l-2.829 2.828a.997.997 0 01-.707.293zm-5.157 5.156a.999.999 0 01-.707-1.707l2.329-2.328a.999.999 0 111.414 1.414l-2.329 2.328a.993.993 0 01-.707.293z" fill="#ed3f32"></path>
    <path d="M53 21.605h-4a1 1 0 110-2h4a1 1 0 110 2zm-6 6a1 1 0 01-1-1v-4a1 1 0 112 0v4a1 1 0 01-1 1z" fill="#659c35"></path>
    <path d="M23.461 18.387a1.739 1.739 0 011.054 2.388l-.181.392a1.737 1.737 0 00.576 2.15l.354.25a1.737 1.737 0 01-.001 2.84l-.353.249a1.733 1.733 0 00-.669.951h16c.105-.374.332-.713.669-.951l.353-.249a1.737 1.737 0 00.001-2.84l-.354-.25a1.738 1.738 0 01-.576-2.15l.181-.392a1.737 1.737 0 00-1.42-2.46l-.43-.039a1.74 1.74 0 01-1.575-1.574l-.039-.43a1.737 1.737 0 00-2.46-1.42l-.391.18a1.737 1.737 0 01-2.15-.576l-.249-.353a1.737 1.737 0 00-2.841 0l-.249.353a1.737 1.737 0 01-2.15.576l-.392-.182a1.737 1.737 0 00-2.46 1.42l-.039.43c-.04.442-.24.937-.393 1.26a.307.307 0 00.184.427z" fill="#88c057"></path>
    <path d="M12.545 13.88l5.76-8.175a3.008 3.008 0 014.18-.724 3.008 3.008 0 01.724 4.18l-5.76 8.175a3.008 3.008 0 01-4.18.724 3.008 3.008 0 01-.724-4.18z" fill="#a46f3e"></path>
    <path d="M25.263 23.565l-.353-.249a1.737 1.737 0 01-.576-2.15l.181-.392a1.737 1.737 0 00-1.42-2.46l-.43-.039a1.737 1.737 0 01-1.574-1.574l-.039-.43a1.733 1.733 0 00-1.744-1.573l-1.858 2.637a3.008 3.008 0 01-4.18.724 3.01 3.01 0 01-1.204-3.077c-.461.233-1.008.278-1.504.049l-.392-.182a1.737 1.737 0 00-2.46 1.42l-.039.43a1.737 1.737 0 01-1.574 1.574l-.43.039a1.737 1.737 0 00-1.42 2.46l.181.392c.353.762.11 1.667-.576 2.15l-.353.249a1.738 1.738 0 000 2.841l.353.249c.337.237.563.577.668.95h19.722c.105-.374.332-.713.668-.95l.353-.249a1.735 1.735 0 000-2.839z" fill="#fbd490"></path>
    <path d="M29.5 21.105a.999.999 0 01-.707-1.707l1.5-1.5a.999.999 0 111.414 1.414l-1.5 1.5a.997.997 0 01-.707.293zm5.5 2.5a.997.997 0 01-.707-.293l-1-1a.999.999 0 111.414-1.414l1 1A.999.999 0 0135 23.605zm-5 2a.999.999 0 01-.707-1.707l1-1a.999.999 0 111.414 1.414l-1 1a.997.997 0 01-.707.293z" fill="#436b1c"></path>
  </symbol>
  <symbol xmlns="http://www.w3.org/2000/svg" viewBox="0 0 57.761 57.761" id="icon-dish-soup">
    <ellipse cx="31.332" cy="54.761" rx="15" ry="3" fill="#f4f4f4"></ellipse>
    <ellipse cx="26.332" cy="54.761" rx="10" ry="2" fill="#d8d8d8"></ellipse>
    <path d="M48.467 32.559c0-3.075-10.328-5.568-23.068-5.568S2.332 29.483 2.332 32.559v.135c0 12.74 10.328 23.068 23.068 23.068s23.068-10.328 23.068-23.068l-.001-.135z" fill="#e6e6e6"></path>
    <path fill="#a46f3e" d="M14.429 5.995l41.001 4-.194 1.99-41.001-4z"></path>
    <path d="M17.694 23.76c-.878-.728-1.362-1.711-1.362-2.77s.483-2.042 1.362-2.77c.412-.342.638-.778.638-1.23s-.227-.889-.638-1.23c-.878-.728-1.362-1.711-1.362-2.77s.483-2.042 1.362-2.77c.412-.342.638-.778.638-1.23s-.227-.889-.638-1.23c-.878-.728-1.362-1.711-1.362-2.77s.483-2.042 1.362-2.77l1.276 1.54c-.412.342-.638.778-.638 1.23s.227.889.638 1.23c.878.728 1.362 1.711 1.362 2.77s-.483 2.042-1.362 2.77c-.412.342-.638.778-.638 1.23s.227.889.638 1.23c.878.728 1.362 1.711 1.362 2.77s-.483 2.042-1.362 2.77c-.412.342-.638.778-.638 1.23s.227.889.638 1.23l-1.276 1.54zm4 0c-.878-.728-1.362-1.711-1.362-2.77s.483-2.042 1.362-2.77c.412-.342.638-.778.638-1.23s-.227-.889-.638-1.23c-.878-.728-1.362-1.711-1.362-2.77s.483-2.042 1.362-2.77c.412-.342.638-.778.638-1.23s-.227-.889-.638-1.23c-.878-.728-1.362-1.711-1.362-2.77s.483-2.042 1.362-2.77l1.276 1.54c-.412.342-.638.778-.638 1.23s.227.889.638 1.23c.878.728 1.362 1.711 1.362 2.77s-.483 2.042-1.362 2.77c-.412.342-.638.778-.638 1.23s.227.889.638 1.23c.878.728 1.362 1.711 1.362 2.77s-.483 2.042-1.362 2.77c-.412.342-.638.778-.638 1.23s.227.889.638 1.23l-1.276 1.54zm4 0c-.878-.728-1.362-1.711-1.362-2.77s.483-2.042 1.362-2.77c.412-.342.638-.778.638-1.23s-.227-.889-.638-1.23c-.878-.728-1.362-1.711-1.362-2.77s.483-2.042 1.362-2.77c.412-.342.638-.778.638-1.23s-.227-.889-.638-1.23c-.878-.728-1.362-1.711-1.362-2.77s.483-2.042 1.362-2.77l1.276 1.54c-.412.342-.638.778-.638 1.23s.227.889.638 1.23c.878.728 1.362 1.711 1.362 2.77s-.483 2.042-1.362 2.77c-.412.342-.638.778-.638 1.23s.227.889.638 1.23c.878.728 1.362 1.711 1.362 2.77s-.483 2.042-1.362 2.77c-.412.342-.638.778-.638 1.23s.227.889.638 1.23l-1.276 1.54zm4 0c-.878-.728-1.362-1.711-1.362-2.77s.483-2.042 1.362-2.77c.412-.342.638-.778.638-1.23s-.227-.889-.638-1.23c-.878-.728-1.362-1.711-1.362-2.77s.483-2.042 1.362-2.77c.412-.342.638-.778.638-1.23s-.227-.889-.638-1.23c-.878-.728-1.362-1.711-1.362-2.77s.483-2.042 1.362-2.77l1.276 1.54c-.412.342-.638.778-.638 1.23s.227.889.638 1.23c.878.728 1.362 1.711 1.362 2.77s-.483 2.042-1.362 2.77c-.412.342-.638.778-.638 1.23s.227.889.638 1.23c.878.728 1.362 1.711 1.362 2.77s-.483 2.042-1.362 2.77c-.412.342-.638.778-.638 1.23s.227.889.638 1.23l-1.276 1.54z" fill="#eeaf4b"></path>
    <ellipse cx="25.399" cy="32.558" rx="23.068" ry="5.568" fill="#fbd490"></ellipse>
    <path d="M34.562 36.399c-.683-.824-1.778-.824-2.461 0l-1.539-1.277c.728-.878 1.711-1.361 2.77-1.361s2.042.483 2.77 1.361l-1.54 1.277zm6-1c-.683-.824-1.778-.824-2.461 0l-1.539-1.277c.728-.878 1.711-1.361 2.77-1.361s2.042.483 2.77 1.361l-1.54 1.277zm4-2c-.683-.824-1.778-.824-2.461 0l-1.539-1.277c.728-.878 1.711-1.361 2.77-1.361s2.042.483 2.77 1.361l-1.54 1.277zm-6-1c-.683-.824-1.778-.824-2.461 0l-1.539-1.277c.728-.878 1.711-1.361 2.77-1.361s2.042.483 2.77 1.361l-1.54 1.277zm-6 1c-.683-.824-1.778-.824-2.461 0l-1.539-1.277c.728-.878 1.711-1.361 2.77-1.361s2.042.483 2.77 1.361l-1.54 1.277zm0-3c-.683-.824-1.778-.824-2.461 0l-1.539-1.277c.728-.878 1.711-1.361 2.77-1.361s2.042.483 2.77 1.361l-1.54 1.277zm-6 2c-.683-.824-1.778-.824-2.461 0l-1.539-1.277c.728-.878 1.711-1.361 2.77-1.361s2.042.483 2.77 1.361l-1.54 1.277zm1 4c-.683-.824-1.778-.824-2.461 0l-1.539-1.277c.728-.878 1.711-1.361 2.77-1.361s2.042.483 2.77 1.361l-1.54 1.277zm-6 0c-.683-.824-1.778-.824-2.461 0l-1.539-1.277c.728-.878 1.711-1.361 2.77-1.361s2.042.483 2.77 1.361l-1.54 1.277zm-12-1c-.683-.824-1.778-.824-2.461 0l-1.539-1.277c.728-.878 1.711-1.361 2.77-1.361s2.042.483 2.77 1.361l-1.54 1.277zm7 0c-.683-.824-1.778-.824-2.461 0l-1.539-1.277c.728-.878 1.711-1.361 2.77-1.361s2.042.483 2.77 1.361l-1.54 1.277zm3-3c-.683-.824-1.778-.824-2.461 0l-1.539-1.277c.728-.878 1.711-1.361 2.77-1.361s2.042.483 2.77 1.361l-1.54 1.277zm-8 0c-.683-.824-1.778-.824-2.461 0l-1.539-1.277c.728-.878 1.711-1.361 2.77-1.361s2.042.483 2.77 1.361l-1.54 1.277z" fill="#eeaf4b"></path>
    <path fill="#af7f58" d="M54.193 0l.277 1.98-43 6L11.192 6z"></path>
    <path d="M18.624 52.181c-9.44-1.46-11.3-13.42-11.3-13.42 2.865 1.45 5.293 2.767 6.198 4.954 3.225.168 4.927 1.206 4.384 4.283 8.688 2.048 8.378 3.64 5.943 4.859-1.55-.151-5.225-.676-5.225-.676z" fill="#ededed"></path>
  </symbol>
  <symbol xmlns="http://www.w3.org/2000/svg" viewBox="0 0 52.25 52.25" id="icon-ingredient-dairy">
    <path d="M22.251 24.708s-.068 2.359 3.089 5.03c8.051 6.814 5.094 21.935-4.397 22.012h-9.602c-9.49-.076-12.447-15.198-4.396-22.012 3.157-2.672 3.089-5.03 3.089-5.03h12.217z" fill="#dae7ef"></path>
    <path d="M16.251 52.25h-4.909c-3.914-.031-7.16-2.568-8.687-6.787-1.701-4.7-1.185-11.745 3.967-16.106 2.903-2.457 2.912-4.617 2.912-4.639l-.006-.505.506-.005h12.732l-.015.512c0 .063.037 2.204 2.911 4.637 5.152 4.361 5.668 11.406 3.967 16.106-1.526 4.219-4.771 6.756-8.683 6.787h-4.695zm-5.764-27.042c-.148.893-.756 2.827-3.219 4.912-4.787 4.052-5.26 10.617-3.673 15.003 1.398 3.865 4.224 6.099 7.75 6.127h9.598c3.522-.028 6.348-2.262 7.746-6.127 1.587-4.386 1.115-10.951-3.673-15.003-2.462-2.085-3.069-4.02-3.218-4.912H10.487z" fill="#bbd7ea"></path>
    <path d="M12.165 24.708h-2.131c-1.1 0-2-.9-2-2s.9-2 2-2h12c1.1 0 2 .9 2 2s-.9 2-2 2h-9.869z" fill="#38454f"></path>
    <path d="M44.83 9.114l-.03-.027c-1.147-1.038-.836-2.85.401-3.78.487-.366.803-.947.803-1.599v-1c0-1.1-.9-2-2-2h-11c-1.1 0-2 .9-2 2v1c0 .665.33 1.254.835 1.616 1.157.83 1.624 2.426.702 3.511-.087.102-.184.2-.29.292-2.108 1.815-5.247 3.823-5.247 8.581v13.753c4.155 5.186 3.785 13.124.122 17.371.41 1.644 1.892 2.876 3.658 2.876h15.438a3.792 3.792 0 003.781-3.781V17.708c.001-4.772-3.099-6.774-5.173-8.594z" fill="#dae7ef"></path>
    <path d="M46.222 52.208H30.785a4.276 4.276 0 01-4.145-3.255l-.063-.251.169-.196c3.323-3.853 4.063-11.495-.134-16.732l-.109-.137V17.708c0-4.471 2.607-6.626 4.702-8.358.248-.205.489-.404.719-.602.087-.075.165-.154.236-.238.364-.429.395-.901.354-1.222-.072-.593-.435-1.175-.968-1.558a2.497 2.497 0 01-1.044-2.022v-1c0-1.379 1.121-2.5 2.5-2.5h11c1.379 0 2.5 1.121 2.5 2.5v1c0 .78-.375 1.527-1.003 1.998-.542.408-.884 1.033-.912 1.672-.024.522.17.998.546 1.338l-.304.398.33-.376c.23.203.475.408.726.619 2.057 1.729 4.617 3.883 4.617 8.351v30.22a4.283 4.283 0 01-4.28 4.28zm-18.543-3.259a3.273 3.273 0 003.105 2.259h15.438a3.284 3.284 0 003.281-3.28v-30.22c0-4.002-2.264-5.906-4.261-7.586a42.063 42.063 0 01-.742-.632l-.006-.006.336-.37-.348.359a2.66 2.66 0 01-.894-2.141c.042-.935.532-1.841 1.311-2.426a1.49 1.49 0 00.604-1.199v-1c0-.827-.673-1.5-1.5-1.5h-11c-.827 0-1.5.673-1.5 1.5v1c0 .477.234.929.627 1.21.757.543 1.271 1.384 1.378 2.248a2.559 2.559 0 01-.587 1.993 3.322 3.322 0 01-.345.347c-.234.201-.48.405-.734.615-2.033 1.681-4.339 3.587-4.339 7.587v13.579c3.916 5.032 3.987 13.008.176 17.663z" fill="#bbd7ea"></path>
    <path d="M27.914 13.75c-.551 1.075-.911 2.359-.911 3.958v13.753c4.155 5.187 3.785 13.124.122 17.371.41 1.644 1.892 2.876 3.658 2.876h15.438a3.792 3.792 0 003.781-3.781V17.708c0-1.6-.353-2.883-.894-3.958H27.914z" fill="#fff"></path>
    <path fill="#abcbdd" d="M38.506 18.665h12v26.171h-12zM12.463 33.75H3.274c-1.911 3.804-1.972 8.402-.513 12h9.702c1.1 0 2-.9 2-2v-8c0-1.1-.9-2-2-2z"></path>
    <path d="M46.222 52.208H30.785a4.276 4.276 0 01-4.145-3.255l-.063-.251.169-.196c3.323-3.853 4.063-11.495-.134-16.732l-.109-.137V17.708c0-4.471 2.607-6.626 4.702-8.358.248-.205.489-.404.719-.602.087-.075.165-.154.236-.238.364-.429.395-.901.354-1.222-.072-.593-.435-1.175-.968-1.558a2.497 2.497 0 01-1.044-2.022v-1c0-1.379 1.121-2.5 2.5-2.5h11c1.379 0 2.5 1.121 2.5 2.5v1c0 .78-.375 1.527-1.003 1.998-.542.408-.884 1.033-.912 1.672-.024.522.17.998.546 1.338l-.304.398.33-.376c.23.203.475.408.726.619 2.057 1.729 4.617 3.883 4.617 8.351v30.22a4.283 4.283 0 01-4.28 4.28zm-18.543-3.259a3.273 3.273 0 003.105 2.259h15.438a3.284 3.284 0 003.281-3.28v-30.22c0-4.002-2.264-5.906-4.261-7.586a42.063 42.063 0 01-.742-.632l-.006-.006.336-.37-.348.359a2.66 2.66 0 01-.894-2.141c.042-.935.532-1.841 1.311-2.426a1.49 1.49 0 00.604-1.199v-1c0-.827-.673-1.5-1.5-1.5h-11c-.827 0-1.5.673-1.5 1.5v1c0 .477.234.929.627 1.21.757.543 1.271 1.384 1.378 2.248a2.559 2.559 0 01-.587 1.993 3.322 3.322 0 01-.345.347c-.234.201-.48.405-.734.615-2.033 1.681-4.339 3.587-4.339 7.587v13.579c3.916 5.032 3.987 13.008.176 17.663z" fill="#bbd7ea"></path>
    <path d="M31.984 4.75h.02a2.382 2.382 0 01-2.375-2.375A2.382 2.382 0 0132.004 0h13.125a2.382 2.382 0 012.375 2.375 2.382 2.382 0 01-2.375 2.375H31.984z" fill="#38454f"></path>
  </symbol>
  <symbol xmlns="http://www.w3.org/2000/svg" viewBox="0 0 56.673 56.673" id="icon-ingredient-fruit">
    <path d="M31.483 16.213a13.104 13.104 0 01-6.292 0c-10.756-2.66-19.762-1.64-19.658 18.643.053 10.39 9.783 23.862 20.009 21.557a12.76 12.76 0 015.589 0c10.226 2.305 19.956-11.167 20.009-21.557.104-20.282-8.901-21.303-19.657-18.643z" fill="#d13834"></path>
    <path d="M10.533 29.674a1 1 0 01-1-1c0-5.514 4.037-10 9-10a1 1 0 110 2c-3.859 0-7 3.589-7 8a1 1 0 01-1 1z" fill="#f75b57"></path>
    <path d="M28.265 19.999a1 1 0 01-.998-.968c-.135-4.232-1.761-9.545-5.922-11.764a1 1 0 11.942-1.765c4.914 2.62 6.827 8.673 6.979 13.465a.999.999 0 01-.968 1.031l-.033.001z" fill="#4c312c"></path>
    <path d="M28.176 23.592a6.25 6.25 0 01-4.45-1.845.999.999 0 111.414-1.414c.812.812 1.891 1.259 3.036 1.259s2.224-.447 3.035-1.259a.999.999 0 111.414 1.414 6.248 6.248 0 01-4.449 1.845z" fill="#994530"></path>
    <path d="M27.305 13.04l.609-4.086A9.916 9.916 0 0136.26.608L40.345 0l-.609 4.086a9.916 9.916 0 01-8.346 8.346l-4.085.608z" fill="#659c35"></path>
  </symbol>
  <symbol xmlns="http://www.w3.org/2000/svg" viewBox="0 0 54.081 54.081" id="icon-ingredient-grain">
    <path d="M43.815 10.162l-1.954.54a5.265 5.265 0 00-4.432 4.432l-.54 1.954 1.954-.54a5.265 5.265 0 004.432-4.432l.54-1.954z" fill="#f9d70b"></path>
    <path d="M35.456 18.521l.993-3.598a6.23 6.23 0 015.202-5.201l3.597-.994-.994 3.598a6.228 6.228 0 01-5.201 5.201l-3.597.994zm6.925-6.925l-.374.096a4.24 4.24 0 00-3.59 3.59l-.096.373.374-.096a4.24 4.24 0 003.59-3.59l.096-.373z" fill="#eeaf4b"></path>
    <path d="M32.529 7.362l-1 1.763a5.265 5.265 0 000 6.268l1 1.763 1-1.763a5.265 5.265 0 000-6.268l-1-1.763z" fill="#f9d70b"></path>
    <path d="M32.529 19.183l-1.841-3.245a6.227 6.227 0 010-7.356l1.841-3.247 1.841 3.247a6.23 6.23 0 010 7.356l-1.841 3.245zm0-9.794l-.197.332a4.242 4.242 0 000 5.078l.196.331.196-.331a4.242 4.242 0 000-5.078l-.195-.332z" fill="#eeaf4b"></path>
    <path d="M46.566 21.399l-1.763-1a5.265 5.265 0 00-6.268 0l-1.763 1 1.763 1a5.265 5.265 0 006.268 0l1.763-1z" fill="#f9d70b"></path>
    <path d="M41.669 24.442c-1.287 0-2.574-.4-3.678-1.202l-3.246-1.841 3.246-1.841a6.224 6.224 0 017.356 0l3.247 1.841-3.247 1.841a6.245 6.245 0 01-3.678 1.202zm-2.871-3.043l.332.196a4.24 4.24 0 005.077 0l.332-.196-.332-.196a4.235 4.235 0 00-5.077 0l-.332.196z" fill="#eeaf4b"></path>
    <path d="M26.165 13.726l-1 1.763a5.265 5.265 0 000 6.268l1 1.763 1-1.763a5.265 5.265 0 000-6.268l-1-1.763z" fill="#f9d70b"></path>
    <path d="M26.165 25.548l-1.841-3.247a6.229 6.229 0 010-7.355l1.841-3.247 1.841 3.247a6.226 6.226 0 010 7.355l-1.841 3.247zm0-9.795l-.196.332a4.239 4.239 0 000 5.076l.196.332.197-.332a4.239 4.239 0 000-5.076l-.197-.332z" fill="#eeaf4b"></path>
    <path d="M40.202 27.763l-1.763-1a5.265 5.265 0 00-6.268 0l-1.763 1 1.763 1a5.265 5.265 0 006.268 0l1.763-1z" fill="#f9d70b"></path>
    <path d="M35.305 30.806c-1.288 0-2.574-.4-3.679-1.202l-3.246-1.841 3.246-1.841a6.23 6.23 0 017.356 0l3.245 1.841-3.245 1.841a6.247 6.247 0 01-3.677 1.202zm-2.87-3.043l.332.196a4.239 4.239 0 005.078 0l.332-.196-.332-.196a4.244 4.244 0 00-5.078 0l-.332.196z" fill="#eeaf4b"></path>
    <path d="M19.801 20.09l-1 1.763a5.265 5.265 0 000 6.268l1 1.763 1-1.763a5.265 5.265 0 000-6.268l-1-1.763z" fill="#f9d70b"></path>
    <path d="M19.801 31.912l-1.841-3.247a6.227 6.227 0 010-7.356l1.841-3.245 1.841 3.245a6.23 6.23 0 010 7.356l-1.841 3.247zm0-9.796l-.196.331a4.242 4.242 0 000 5.078l.197.332.196-.332a4.242 4.242 0 000-5.078l-.197-.331z" fill="#eeaf4b"></path>
    <path d="M33.838 34.127l-1.763-1a5.265 5.265 0 00-6.268 0l-1.763 1 1.763 1a5.265 5.265 0 006.268 0l1.763-1z" fill="#f9d70b"></path>
    <path d="M28.941 37.17a6.252 6.252 0 01-3.678-1.202l-3.246-1.841 3.246-1.841a6.23 6.23 0 017.356 0l3.246 1.841-3.246 1.841a6.252 6.252 0 01-3.678 1.202zm-2.87-3.043l.332.196a4.24 4.24 0 005.078 0l.332-.196-.332-.196a4.242 4.242 0 00-5.078 0l-.332.196z" fill="#eeaf4b"></path>
    <path d="M13.437 26.454l-1 1.763a5.265 5.265 0 000 6.268l1 1.763 1-1.763a5.265 5.265 0 000-6.268l-1-1.763z" fill="#f9d70b"></path>
    <path d="M13.437 38.274l-1.841-3.245a6.23 6.23 0 010-7.356l1.841-3.245 1.841 3.245a6.227 6.227 0 010 7.356l-1.841 3.245zm0-9.794l-.196.331a4.244 4.244 0 000 5.079l.196.331.196-.331a4.244 4.244 0 000-5.079l-.196-.331z" fill="#eeaf4b"></path>
    <path d="M27.474 40.491l-1.763-1a5.265 5.265 0 00-6.268 0l-1.763 1 1.763 1a5.265 5.265 0 006.268 0l1.763-1z" fill="#f9d70b"></path>
    <path d="M22.577 43.534c-1.287 0-2.574-.4-3.678-1.202l-3.246-1.841 3.246-1.841a6.226 6.226 0 017.357 0l3.246 1.841-3.246 1.841a6.25 6.25 0 01-3.679 1.202zm-2.87-3.043l.332.196a4.242 4.242 0 005.078 0l.332-.196-.332-.196a4.236 4.236 0 00-5.078 0l-.332.196z" fill="#eeaf4b"></path>
    <path d="M7.073 32.818l-1 1.763a5.265 5.265 0 000 6.268l1 1.763 1-1.763a5.265 5.265 0 000-6.268l-1-1.763z" fill="#f9d70b"></path>
    <path d="M7.073 44.64l-1.841-3.247a6.226 6.226 0 010-7.355l1.841-3.247 1.841 3.247a6.226 6.226 0 010 7.355L7.073 44.64zm0-9.795l-.197.332a4.239 4.239 0 000 5.076l.197.332.197-.332a4.239 4.239 0 000-5.076l-.197-.332z" fill="#eeaf4b"></path>
    <path d="M21.11 46.855l-1.763-1a5.265 5.265 0 00-6.268 0l-1.763 1 1.763 1a5.265 5.265 0 006.268 0l1.763-1z" fill="#f9d70b"></path>
    <path d="M16.213 49.897c-1.287 0-2.574-.4-3.678-1.202l-3.246-1.841 3.246-1.841a6.232 6.232 0 017.356 0l3.246 1.841-3.246 1.841a6.245 6.245 0 01-3.678 1.202zm-2.87-3.043l.332.196a4.236 4.236 0 005.078 0l.332-.196-.332-.196a4.244 4.244 0 00-5.078 0l-.332.196z" fill="#eeaf4b"></path>
    <path fill="#f9d70b" d="M36.719 17.209L1 52.928"></path>
    <path d="M1 53.928a.999.999 0 01-.707-1.707l35.719-35.719a.999.999 0 111.414 1.414L1.707 53.635a.997.997 0 01-.707.293z" fill="#eeaf4b"></path>
    <path fill="#f9d70b" d="M36.111 6.81l5.656-5.656"></path>
    <path d="M36.11 7.811a.999.999 0 01-.707-1.707L41.06.447a.999.999 0 111.414 1.414l-5.657 5.657a.997.997 0 01-.707.293z" fill="#eeaf4b"></path>
    <path fill="#f9d70b" d="M40.353 8.225l7.071-7.071"></path>
    <path d="M40.353 9.225a.999.999 0 01-.707-1.707L46.717.447a.999.999 0 111.414 1.414L41.06 8.932a.997.997 0 01-.707.293z" fill="#eeaf4b"></path>
    <path fill="#f9d70b" d="M46.01 13.882l7.071-7.072"></path>
    <path d="M46.01 14.882a.999.999 0 01-.707-1.707l7.071-7.071a.999.999 0 111.414 1.414l-7.071 7.071a.999.999 0 01-.707.293z" fill="#eeaf4b"></path>
    <path fill="#f9d70b" d="M46.717 7.518l6.364-6.364"></path>
    <path d="M46.717 8.518a.999.999 0 01-.707-1.707L52.374.447a.999.999 0 111.414 1.414l-6.364 6.364a.997.997 0 01-.707.293z" fill="#eeaf4b"></path>
    <path fill="#f9d70b" d="M47.424 18.124l5.657-5.657"></path>
    <path d="M47.424 19.124a.999.999 0 01-.707-1.707l5.657-5.656a.999.999 0 111.414 1.414l-5.657 5.656a.997.997 0 01-.707.293z" fill="#eeaf4b"></path>
  </symbol>
  <symbol xmlns="http://www.w3.org/2000/svg" viewBox="0 0 56 56" id="icon-ingredient-meat">
    <ellipse transform="rotate(45.001 43.914 12.086)" cx="43.914" cy="12.087" rx="16" ry="6" fill="#c56458"></ellipse>
    <path d="M42.499 13.501c-2.382-2.382-4.048-4.645-5.12-6.486-.557-.955.507-2.019 1.463-1.463 1.84 1.072 4.104 2.738 6.486 5.12 2.382 2.382 4.048 4.645 5.12 6.486.557.955-.507 2.019-1.463 1.463-1.84-1.073-4.104-2.738-6.486-5.12z" fill="#fbd490"></path>
    <path d="M39.671 16.329C33.423 10.081 30.257 3.116 32.6.773c-8.396 8.396-17.562 27.693-11.314 33.941S46.831 31.796 55.227 23.4c-2.343 2.343-9.308-.822-15.556-7.071z" fill="#773f3a"></path>
    <path d="M22.693 35.751a6.083 6.083 0 01-1.406-1.037 6.246 6.246 0 01-1.288-1.925l-6.872 6.872a11.531 11.531 0 01-8.876 3.347 4.171 4.171 0 00-1.19.1A3.975 3.975 0 00.11 46.052 4.005 4.005 0 004 51c.05 0 .096-.013.146-.015-.288 1.095-.288 2.303 1.317 3.883.716.705 1.657 1.16 2.661 1.13A4 4 0 0012 52v-.045c-.037-3.305 1.015-6.526 3.352-8.863l7.341-7.341z" fill="#fbd490"></path>
    <path d="M38.31 21.667a.994.994 0 01-.563-.175c-1.036-.708-2.057-1.563-3.034-2.539s-1.832-1.998-2.54-3.034a2.091 2.091 0 00-1.848-.916 2.122 2.122 0 00-1.77 1.077 28.65 28.65 0 00-1.628 3.377 1 1 0 11-1.856-.744 30.315 30.315 0 011.742-3.613 4.104 4.104 0 013.425-2.095 4.082 4.082 0 013.585 1.785 19.662 19.662 0 002.302 2.749c.89.889 1.814 1.663 2.749 2.303a1 1 0 01-.564 1.825zm-10.4 11.625c-1.571.001-2.938-.401-3.906-1.37-.914-.914-1.376-2.235-1.374-3.922a1 1 0 011-.999h.001a1 1 0 01.999 1.002c-.001 1.138.263 1.98.788 2.505 1.574 1.574 6.136.727 11.091-2.063a1 1 0 11.981 1.742c-3.057 1.722-6.668 3.105-9.58 3.105z" fill="#994530"></path>
  </symbol>
  <symbol xmlns="http://www.w3.org/2000/svg" viewBox="0 0 53.501 53.501" id="icon-ingredient-oil">
    <path d="M52.501 32.753a1 1 0 01-1-1v-4a1 1 0 112 0v4a1 1 0 01-1 1zm0 6a1 1 0 01-1-1v-2a1 1 0 112 0v2a1 1 0 01-1 1zm0 5a1 1 0 01-1-1v-1a1 1 0 112 0v1a1 1 0 01-1 1zm0 3.996c-.26 0-.521-.1-.71-.29a1.008 1.008 0 01-.29-.71c0-.26.109-.52.3-.71.35-.359 1.04-.37 1.41.01.18.181.29.44.29.7 0 .271-.11.53-.29.71-.191.191-.451.29-.71.29z" fill="#f9d70b"></path>
    <path d="M50.11 23.295l2.121-2.121-7.778-7.778-4.95-4.95-3.308-3.308C32.147 1.09 25.605.545 21.196 4.196c-5.06 4.189-5.322 11.734-.785 16.271l2.828 2.828-.393.393c-5.932-3.362-13.66-2.377-18.519 2.989-5.115 5.65-5.102 14.501.028 20.137 5.804 6.376 15.685 6.55 21.712.523 4.877-4.877 5.679-12.27 2.435-17.992l6.101-6.101c4.221-4.221 11.079-4.312 15.33-.122.061.057.119.114.177.173zm-22.198-1.843a.605.605 0 01-.857 0l-3.814-3.814a7.008 7.008 0 01.693-10.509c2.815-2.175 6.863-1.733 9.378.782l3.642 3.642a.605.605 0 010 .857l-9.042 9.042z" fill="#dae7ef"></path>
    <path d="M15.473 52.23c-.126 0-.251-.001-.377-.004-4.275-.101-8.221-1.903-11.109-5.075-5.305-5.827-5.317-14.968-.029-20.81 4.597-5.076 11.786-6.516 17.904-3.718l-1.804-1.804a11.528 11.528 0 01-3.351-8.675c.154-3.275 1.635-6.235 4.17-8.334 4.51-3.732 11.394-3.304 15.672.974l16.39 16.389-2.832 2.832-.466-.472c-4.084-4.024-10.646-3.972-14.682.063l-5.836 5.836c3.2 5.986 2.114 13.441-2.701 18.257a15.355 15.355 0 01-10.949 4.541zm-.043-30.012c-3.977 0-7.885 1.651-10.73 4.795-4.947 5.464-4.936 14.014.027 19.464 2.702 2.969 6.394 4.655 10.393 4.749 4.029.097 7.765-1.412 10.596-4.243 4.589-4.589 5.557-11.74 2.354-17.392l-.188-.331 6.371-6.37c4.362-4.363 11.42-4.477 15.854-.299l1.418-1.418L35.842 5.491c-3.918-3.917-10.208-4.317-14.327-.911-2.315 1.918-3.668 4.621-3.809 7.611a10.524 10.524 0 003.059 7.921l3.184 3.183-1.018 1.015-.33-.188a14.517 14.517 0 00-7.171-1.904zm12.053-.09a1.1 1.1 0 01-.781-.321l-3.814-3.815a7.505 7.505 0 01.741-11.258c2.962-2.29 7.277-1.936 10.037.823l3.642 3.643c.209.208.324.486.324.782 0 .295-.115.573-.325.782l-9.042 9.043a1.104 1.104 0 01-.782.321zm.614-15.902a6.277 6.277 0 00-3.857 1.299c-1.513 1.169-2.412 2.854-2.533 4.745a6.503 6.503 0 001.888 5.015l3.813 3.814c.04.04.106.042.15 0l9.042-9.043v-.149l-3.642-3.643a6.889 6.889 0 00-4.861-2.038z" fill="#bbd7ea"></path>
    <path d="M14.048 46.523a10.433 10.433 0 01-7.425-3.075.999.999 0 111.414-1.414c3.314 3.315 8.706 3.313 12.021 0a.999.999 0 111.414 1.414 10.431 10.431 0 01-7.424 3.075z" fill="#fff"></path>
  </symbol>
  <symbol xmlns="http://www.w3.org/2000/svg" viewBox="0 0 40.228 40.228" id="icon-ingredient-spice">
    <path d="M28.502 12.364s-1.833 6.056 5 6 11.75 15.944-6 16H12.725c-17.75-.056-12.833-16.056-6-16s5-6 5-6h16.777z" fill="#dae7ef"></path>
    <path d="M27.504 34.864H12.726c-7.365-.024-10.442-2.708-11.725-4.957-1.427-2.499-1.322-5.743.273-8.467 1.314-2.242 3.336-3.576 5.416-3.576h.129c1.891 0 3.219-.494 3.95-1.471 1.164-1.555.484-3.861.478-3.885l-.195-.645h18.121l-.192.644c-.007.023-.681 2.344.48 3.89.742.989 2.134 1.478 4.037 1.467h.039c2.08 0 4.102 1.334 5.415 3.576 1.597 2.724 1.701 5.968.274 8.468-1.283 2.248-4.359 4.932-11.722 4.956zm-20.813-16c-1.721 0-3.421 1.149-4.553 3.082-1.109 1.894-1.763 4.849-.269 7.466 1.153 2.019 3.973 4.431 10.858 4.452h14.774c6.884-.021 9.703-2.434 10.856-4.452 1.494-2.617.841-5.572-.269-7.466-1.133-1.932-2.832-3.082-4.553-3.082h-.128c-2.224 0-3.821-.629-4.752-1.871-1.049-1.401-.938-3.188-.777-4.129h-15.53c.16.941.271 2.728-.777 4.129-.944 1.26-2.6 1.865-4.849 1.871h-.031z" fill="#bbd7ea"></path>
    <path d="M26.431 34.364H12.398c-3.653 0-4.408-1.957-2.673-4.352 1.659-2.289 4.365-7.725 6-9.99 2.485-3.443 6.288-3.569 9-.222 1.567 1.934 4.295 7.006 5.916 9.011 2.469 3.056.578 5.553-4.21 5.553z" fill="#dc9628"></path>
    <circle cx="20.725" cy="22.364" r="1" fill="#fbd490"></circle>
    <circle cx="17.725" cy="25.364" r="1" fill="#fbd490"></circle>
    <circle cx="22.725" cy="27.364" r="1" fill="#fbd490"></circle>
    <path d="M32.725 12.364h-26c-1.1 0-2-.9-2-2v-3c0-1.1.9-2 2-2h26c1.1 0 2 .9 2 2v3c0 1.1-.9 2-2 2z" fill="#d2d5d7"></path>
  </symbol>
  <symbol xmlns="http://www.w3.org/2000/svg" viewBox="0 0 56.538 56.538" id="icon-ingredient-vegetable">
    <path d="M34.685 22.808s12.342-7.316 20.178 3.022c0 0 2.032 2.35.47 4.6-1.537 2.212-4.968 1.742-6.676-.603-1.541-2.115-5.254-4.8-13.972-7.019z" fill="#88c057"></path>
    <path d="M34.685 22.808s7.506-12.152-2.145-19.301c0 0-3.185-2.863-6.062-1.844-2.676.947-2.746 4.678-.284 6.089 2.698 1.547 6.394 5.411 8.491 15.056zm19.919 3.658s.067.086.155.205c.257-.23.506-.478.732-.768 2.084-2.67.414-4.736.414-4.736-6.186-9.306-20.584.807-20.584.807.693.048 1.341.11 1.968.176 4.117-1.502 11.821-2.932 17.315 4.316z" fill="#88c057"></path>
    <path d="M32.541 3.507c7.445 5.514 4.681 14.002 3.028 17.596.003.081.009.154.012.235 0 0 10.275-14.236 1.555-19.836 0 0-2.779-2.377-5.999-.74a5.38 5.38 0 00-1.428 1.056c1.611.594 2.832 1.689 2.832 1.689z" fill="#a4e869"></path>
    <path d="M50.459 6.131c-3.647-2.363-8.276 1.205-8.276 1.205-.768.92-1.465 1.91-2.108 2.927-.638 4.649-3.667 9.674-5.173 11.934-.089.314-.164.589-.216.787 1.745-1.172 6.828-4.343 11.824-5.164 1.24-.822 2.422-1.725 3.451-2.705 5.515-5.251.498-8.984.498-8.984z" fill="#659c35"></path>
    <path d="M34.685 22.808s12.342-7.316 20.178 3.022c0 0 2.032 2.35.47 4.6-1.537 2.212-4.968 1.742-6.676-.603-1.541-2.115-5.254-4.8-13.972-7.019z" fill="#a4e869"></path>
    <path d="M35.376 21.701c-.281.547-.472.857-.472.857s.468-.276 1.272-.643a47.202 47.202 0 00-.8-.214z" fill="#f2681c"></path>
    <path d="M41.809 28.277c.421-1.172.395-2.334.132-3.429-1.879-.789-4.186-1.565-7.037-2.29-.691-3.177-1.556-5.716-2.501-7.762-1.303-.453-2.728-.614-4.17-.096C23.708 16.326 3.81 44.955.089 54.937c-.35.939.387 1.675 1.325 1.325 9.982-3.721 38.769-23.461 40.395-27.985z" fill="#ed8f20"></path>
    <g fill="#dd7017">
      <path d="M8.236 46.857a12.2 12.2 0 01-1.947-1.168 1 1 0 00-1.182 1.612c.718.527 1.481.985 2.267 1.36a1.001 1.001 0 00.862-1.804zm30.925-19.033c-2.046-.78-3.945-2.182-5.642-4.167a1 1 0 10-1.52 1.3c1.917 2.242 4.087 3.836 6.45 4.737a1.002 1.002 0 001.291-.579 1.002 1.002 0 00-.579-1.291zm-16.439-7.876a1 1 0 01.748.854c.179 1.632 1.022 3.747 2.505 4.792a1 1 0 11-1.154 1.634c-2.001-1.411-2.996-3.947-3.284-5.847"></path>
      <path d="M24.821 27.228a.997.997 0 001.394-.24 1 1 0 00-.24-1.394c-1.482-1.046-2.326-3.161-2.505-4.792a1 1 0 00-.748-.854c-.385.457-.779.931-1.185 1.432.288 1.901 1.283 4.437 3.284 5.848zm5.527 11.35c-1.89-.306-4.369-1.302-5.758-3.271a1.001 1.001 0 011.635-1.153c1.045 1.481 3.16 2.326 4.792 2.505a.99.99 0 01.856.782"></path>
      <path d="M31.018 36.659c-1.633-.179-3.748-1.023-4.792-2.505a1 1 0 00-1.635 1.153c1.389 1.969 3.868 2.965 5.758 3.271.519-.383 1.028-.761 1.525-1.136a.991.991 0 00-.856-.783zM14.756 30.41c.399.094.72.424.768.856.112 1.025.635 2.349 1.549 2.995a1 1 0 11-1.154 1.634c-1.328-.937-2.04-2.56-2.299-3.865"></path>
      <path d="M15.92 35.895a.999.999 0 101.154-1.634c-.915-.646-1.437-1.969-1.549-2.995a.992.992 0 00-.768-.856 227.29 227.29 0 00-1.136 1.62c.259 1.305.971 2.928 2.299 3.865zm2.104 11.152c-1.357-.177-3.244-.888-4.285-2.365a1 1 0 011.634-1.154c.646.915 1.969 1.437 2.994 1.549a1 1 0 01.885 1.103c-.003.031-.02.057-.026.087"></path>
      <path d="M18.367 45.078c-1.025-.112-2.349-.635-2.994-1.549a1 1 0 10-1.634 1.154c1.042 1.477 2.928 2.188 4.285 2.365.4-.257.801-.518 1.202-.779.006-.03.023-.056.026-.087a1 1 0 00-.885-1.104z"></path>
    </g>
  </symbol>
  <symbol xmlns="http://www.w3.org/2000/svg" viewBox="0 0 58 58" id="icon-dish-breakfast">
    <path d="M42.766 48.504c1.862.267 3.869.145 5.907-.451 4.582-1.341 7.987-4.967 8.586-8.935.319-2.113-.12-4.069-1.105-5.717a3.471 3.471 0 01.136-3.799c1.086-1.558 1.71-3.388 1.71-5.355 0-4.29-3.006-8.176-7.423-9.993-2.072-.852-3.673-2.504-4.289-4.459-1.3-4.123-4.245-6.047-8.467-6.664-3.805-.556-7.251.7-9.067 3.07-1.065 1.39-3.31 1.979-5.61 1.418a19.001 19.001 0 00-4.344-.536c-6.395-.055-11.851 3.25-12.763 8.009-.312 1.628-.09 3.225.56 4.708 1.106 2.526.092 5.224-2.507 7.122C1.57 28.763 0 31.265 0 34.013c0 3.285 5.326 5.906 9.847 7.47 3.426 1.186 5.511 3.499 5.993 6.18l.02.107c.866 4.452 5.763 7.431 11.529 7.219 4.608-.169 8.618-2.157 11.054-4.862 1.065-1.182 2.787-1.843 4.323-1.623z" fill="#faf5e5"></path>
    <circle cx="36.5" cy="29.5" r="12.5" fill="#f8b600"></circle>
    <path d="M34 22.374a1.001 1.001 0 01-.294-1.956A9.504 9.504 0 0136.5 20a1 1 0 110 2c-.753 0-1.495.111-2.206.33-.098.03-.197.044-.294.044zM28 30.5a1 1 0 01-1-1 9.482 9.482 0 013.379-7.265 1 1 0 011.289 1.529A7.49 7.49 0 0029 29.5a1 1 0 01-1 1z" fill="#f4c45b"></path>
    <path d="M9.999 17a1 1 0 01-.836-1.547c1.279-1.96 2.998-3.429 5.107-4.368a1 1 0 01.812 1.828c-1.752.779-3.181 2.002-4.246 3.634a.994.994 0 01-.837.453zm11.002-5a.938.938 0 01-.139-.01c-.021-.002-.922-.119-2.211.005a1 1 0 11-.194-1.99c1.551-.15 2.636-.001 2.682.005a1 1 0 01-.138 1.99zm3.238 38.966c-3.095 0-5.8-2.218-6.334-5.312a.999.999 0 111.97-.34c.396 2.291 2.521 3.88 4.851 3.625l.149-.017a1 1 0 11.248 1.984l-.163.019a6.25 6.25 0 01-.721.041zM17.96 44a1 1 0 01-.854-.478c-.722-1.179-1.619-1.749-1.628-1.755a.997.997 0 01-.331-1.374.996.996 0 011.374-.331c.054.032 1.309.812 2.29 2.415A.999.999 0 0117.96 44z" fill="#fff"></path>
    <ellipse transform="rotate(-33.898 40.712 34.392)" cx="40.714" cy="34.392" rx="7.5" ry="4.5" fill="#f79b21"></ellipse>
  </symbol>
  <symbol xmlns="http://www.w3.org/2000/svg" viewBox="0 0 57.364 57.364" id="icon-dish-dessert">
    <path d="M52.092 24.845c-.199-1.096-.315-2.204-.471-3.306-.31-2.204-1.566-3.857-3.923-3.857-2.545 0-3.522 1.941-3.824 4.408l-.176-1.408c0-2.75-2.25-5-5-5s-4 2.25-4 5v-2c0-2.75-3.25-5-6-5s-6 2.25-6 5v2c0-2.75-1.25-5-4-5s-5 2.25-5 5l-.178 1.421c-.302-2.467-1.277-4.421-3.822-4.421-2.357 0-3.612 1.653-3.923 3.857-.155 1.103-.271 2.211-.471 3.306L1.699 44.682h54l-3.607-19.837z" fill="#fff5bb"></path>
    <path d="M10.7 45.682a.999.999 0 01-.993-1.124l2.992-23.941a6.008 6.008 0 016-5.935c3.037 0 5 2.355 5 6l-1.001 24.042c-.022.553-.48 1.01-1.041.957a.999.999 0 01-.957-1.041l1-24c-.001-1.161-.293-3.958-3.001-3.958-2.206 0-4 1.794-4 4l-.008.124-3 24a1 1 0 01-.991.876z" fill="#fbd490"></path>
    <path d="M35.698 43.682a1 1 0 01-.998-.958l-1-24c-.001-2.196-2.75-4.042-5.001-4.042s-5 1.846-5 4l-1.001 24.042c-.022.552-.48 1.001-1.041.957a.999.999 0 01-.957-1.041l1-24c-.001-3.337 3.762-5.958 6.999-5.958s7 2.621 7 6l.999 23.958a.999.999 0 01-.957 1.041l-.043.001z" fill="#fbd490"></path>
    <path d="M46.698 45.682a1 1 0 01-.991-.876l-3.008-24.124c0-2.206-1.794-4-4-4-2.708 0-3 2.797-3 4l.999 23.958a.999.999 0 01-.957 1.041c-.538.053-1.018-.404-1.041-.957l-1-24c-.001-3.687 1.962-6.042 4.999-6.042a6.007 6.007 0 016 5.935l2.992 23.941a1 1 0 01-.993 1.124z" fill="#fbd490"></path>
    <path d="M52.085 49.682H5.303a3.348 3.348 0 01-2.609-1.25l-2.628-3.27a.295.295 0 01.23-.48h56.773c.247 0 .385.285.231.479l-2.595 3.259a3.352 3.352 0 01-2.62 1.262z" fill="#e6e6e6"></path>
    <path d="M6.825 36.119a1 1 0 01-.988-1.157l1.325-8.396a.999.999 0 111.975.313l-1.325 8.396a1 1 0 01-.987.844zm1.758-11.054a1 1 0 01-.988-1.161l.361-2.218a1 1 0 011.974.322l-.36 2.218c-.08.49-.505.839-.987.839zm8.47-1.695a1.002 1.002 0 01-.992-1.132l.297-2.228a.997.997 0 011.123-.859.999.999 0 01.859 1.123l-.297 2.228a1 1 0 01-.99.868zm9.405 5.238l-.041-.001a1 1 0 01-.959-1.039l.195-4.831c.021-.552.487-1.022 1.039-.959a1 1 0 01.959 1.039l-.195 4.831a1 1 0 01-.998.96zm.285-7.523l-.033-.001a.998.998 0 01-.967-1.031l.073-2.246a1 1 0 011.998.064l-.073 2.246a1 1 0 01-.998.968zm21.659 3.402a1 1 0 01-.992-.881l-.269-2.231a1 1 0 011.986-.238l.269 2.231a1 1 0 01-.994 1.119z" fill="#fbd490"></path>
    <path d="M5.776 21.539c.31-2.204 1.566-3.857 3.923-3.857 2.545 0 3.521 1.954 3.822 4.421l.178-1.421c0-2.75 2.25-5 5-5s4 2.25 4 5v-2c0-2.75 3.25-5 6-5s6 2.25 6 5v2c0-2.75 1.25-5 4-5s5 2.25 5 5l.176 1.408c.302-2.467 1.279-4.408 3.824-4.408 2.357 0 3.612 1.653 3.923 3.857.022.159.042.319.063.479.004-.112.014-.223.014-.336 0-7.732-10.297-14-23-14s-23 6.268-23 14c0 .113.01.224.014.336.021-.16.04-.32.063-.479z" fill="#6a3311"></path>
  </symbol>
</svg>