<svg width="0" height="0" class="hidden">
  <symbol xmlns="http://www.w3.org/2000/svg" viewBox="0 0 32 32" id="icon-clock">
    <title>list</title>
    <path d="M0 0h8v8H0zm12 2h20v4H12zM0 12h8v8H0zm12 2h20v4H12zM0 24h8v8H0zm12 2h20v4H12z"></path>
  </symbol>
  <symbol xmlns="http://www.w3.org/2000/svg" viewBox="0 0 32 32" id="icon-cta-list">
    <title>redo2</title>
    <path d="M18 7.762V0l12 12-12 12v-7.932C4.039 15.74 4.638 25.561 8.192 32-.58 22.518 1.283 7.326 18 7.762z"></path>
  </symbol>
  <symbol xmlns="http://www.w3.org/2000/svg" viewBox="0 0 32 32" id="icon-cta-next">
    <title>pencil</title>
    <path d="M27 0a5 5 0 014 8l-2 2-7-7 2-2c.836-.628 1.874-1 3-1zM2 23l-2 9 9-2 18.5-18.5-7-7L2 23zm20.362-11.638l-14 14-1.724-1.724 14-14 1.724 1.724z"></path>
  </symbol>
  <symbol xmlns="http://www.w3.org/2000/svg" viewBox="0 0 32 32" id="icon-cta-pencil">
    <title>undo2</title>
    <path d="M23.808 32c3.554-6.439 4.153-16.26-9.808-15.932V24L2 12 14 0v7.762C30.718 7.326 32.58 22.519 23.808 32z"></path>
  </symbol>
  <symbol xmlns="http://www.w3.org/2000/svg" viewBox="0 0 32 32" id="icon-cta-prev">
    <title>undo</title>
    <path d="M16 2A15.946 15.946 0 004.687 6.687L.001 2v12h12L7.516 9.515A11.962 11.962 0 0116.001 6c6.627 0 12 5.373 12 12 0 3.584-1.572 6.801-4.063 9l2.646 3a15.96 15.96 0 005.417-12c0-8.837-7.163-16-16-16z"></path>
  </symbol>
  <symbol xmlns="http://www.w3.org/2000/svg" viewBox="0 0 32 32" id="icon-cta-return">
    <title>upload2</title>
    <path d="M0 28h32v2H0zm32-4v2H0v-2l4-8h8v4h8v-4h8zM7 10l9-9 9 9h-7v8h-4v-8z"></path>
  </symbol>
  <symbol xmlns="http://www.w3.org/2000/svg" version="1.0" viewBox="0 0 140.8 140.8" id="icon-cta-upload">
    <path d="M124.134 76.8c0 33.211-26.923 60.134-60.134 60.134S3.866 110.011 3.866 76.8 30.789 16.666 64 16.666s60.134 26.923 60.134 60.134z" opacity=".5" stroke="#000" stroke-width="7.731" stroke-opacity=".878"></path>
    <path d="M136.934 64c0 33.211-26.923 60.134-60.134 60.134S16.666 97.211 16.666 64 43.589 3.866 76.8 3.866 136.934 30.789 136.934 64z" fill="#fff" stroke="red" stroke-width="7.732"></path>
    <path d="M53.943 24.41L76.801 64" fill="none" fill-rule="evenodd" stroke="#e0e0e0" stroke-width="8.533" stroke-linecap="round" stroke-linejoin="round"></path>
    <path d="M76.8 18.286V64" fill="none" fill-rule="evenodd" stroke="#bfbfbf" stroke-width="8.533" stroke-linecap="round" stroke-linejoin="round"></path>
    <path d="M99.657 24.41L76.8 64" fill="none" fill-rule="evenodd" stroke="gray" stroke-width="8.533" stroke-linecap="round" stroke-linejoin="round"></path>
    <path d="M46.596 46.56L76.801 64l39.589-22.857" fill="none" fill-rule="evenodd" stroke="#000" stroke-width="8.533" stroke-linecap="round" stroke-linejoin="round"></path>
  </symbol>
  <symbol xmlns="http://www.w3.org/2000/svg" viewBox="0 0 56.673 56.673" id="icon-dish-breakfast">
    <path d="M31.483 16.213a13.104 13.104 0 01-6.292 0c-10.756-2.66-19.762-1.64-19.658 18.643.053 10.39 9.783 23.862 20.009 21.557a12.76 12.76 0 015.589 0c10.226 2.305 19.956-11.167 20.009-21.557.104-20.282-8.901-21.303-19.657-18.643z" fill="#d13834"></path>
    <path d="M10.533 29.674a1 1 0 01-1-1c0-5.514 4.037-10 9-10a1 1 0 110 2c-3.859 0-7 3.589-7 8a1 1 0 01-1 1z" fill="#f75b57"></path>
    <path d="M28.265 19.999a1 1 0 01-.998-.968c-.135-4.232-1.761-9.545-5.922-11.764a1 1 0 11.942-1.765c4.914 2.62 6.827 8.673 6.979 13.465a.999.999 0 01-.968 1.031l-.033.001z" fill="#4c312c"></path>
    <path d="M28.176 23.592a6.25 6.25 0 01-4.45-1.845.999.999 0 111.414-1.414c.812.812 1.891 1.259 3.036 1.259s2.224-.447 3.035-1.259a.999.999 0 111.414 1.414 6.248 6.248 0 01-4.449 1.845z" fill="#994530"></path>
    <path d="M27.305 13.04l.609-4.086A9.916 9.916 0 0136.26.608L40.345 0l-.609 4.086a9.916 9.916 0 01-8.346 8.346l-4.085.608z" fill="#659c35"></path>
  </symbol>
  <symbol xmlns="http://www.w3.org/2000/svg" viewBox="0 0 56 56" id="icon-dish-dessert">
    <ellipse transform="rotate(45.001 43.914 12.086)" cx="43.914" cy="12.087" rx="16" ry="6" fill="#c56458"></ellipse>
    <path d="M42.499 13.501c-2.382-2.382-4.048-4.645-5.12-6.486-.557-.955.507-2.019 1.463-1.463 1.84 1.072 4.104 2.738 6.486 5.12 2.382 2.382 4.048 4.645 5.12 6.486.557.955-.507 2.019-1.463 1.463-1.84-1.073-4.104-2.738-6.486-5.12z" fill="#fbd490"></path>
    <path d="M39.671 16.329C33.423 10.081 30.257 3.116 32.6.773c-8.396 8.396-17.562 27.693-11.314 33.941S46.831 31.796 55.227 23.4c-2.343 2.343-9.308-.822-15.556-7.071z" fill="#773f3a"></path>
    <path d="M22.693 35.751a6.083 6.083 0 01-1.406-1.037 6.246 6.246 0 01-1.288-1.925l-6.872 6.872a11.531 11.531 0 01-8.876 3.347 4.171 4.171 0 00-1.19.1A3.975 3.975 0 00.11 46.052 4.005 4.005 0 004 51c.05 0 .096-.013.146-.015-.288 1.095-.288 2.303 1.317 3.883.716.705 1.657 1.16 2.661 1.13A4 4 0 0012 52v-.045c-.037-3.305 1.015-6.526 3.352-8.863l7.341-7.341z" fill="#fbd490"></path>
    <path d="M38.31 21.667a.994.994 0 01-.563-.175c-1.036-.708-2.057-1.563-3.034-2.539s-1.832-1.998-2.54-3.034a2.091 2.091 0 00-1.848-.916 2.122 2.122 0 00-1.77 1.077 28.65 28.65 0 00-1.628 3.377 1 1 0 11-1.856-.744 30.315 30.315 0 011.742-3.613 4.104 4.104 0 013.425-2.095 4.082 4.082 0 013.585 1.785 19.662 19.662 0 002.302 2.749c.89.889 1.814 1.663 2.749 2.303a1 1 0 01-.564 1.825zm-10.4 11.625c-1.571.001-2.938-.401-3.906-1.37-.914-.914-1.376-2.235-1.374-3.922a1 1 0 011-.999h.001a1 1 0 01.999 1.002c-.001 1.138.263 1.98.788 2.505 1.574 1.574 6.136.727 11.091-2.063a1 1 0 11.981 1.742c-3.057 1.722-6.668 3.105-9.58 3.105z" fill="#994530"></path>
  </symbol>
  <symbol xmlns="http://www.w3.org/2000/svg" viewBox="0 0 57.761 57.761" id="icon-dish-maindish">
    <ellipse cx="31.332" cy="54.761" rx="15" ry="3" fill="#f4f4f4"></ellipse>
    <ellipse cx="26.332" cy="54.761" rx="10" ry="2" fill="#d8d8d8"></ellipse>
    <path d="M48.467 32.559c0-3.075-10.328-5.568-23.068-5.568S2.332 29.483 2.332 32.559v.135c0 12.74 10.328 23.068 23.068 23.068s23.068-10.328 23.068-23.068l-.001-.135z" fill="#e6e6e6"></path>
    <path fill="#a46f3e" d="M14.429 5.995l41.001 4-.194 1.99-41.001-4z"></path>
    <path d="M17.694 23.76c-.878-.728-1.362-1.711-1.362-2.77s.483-2.042 1.362-2.77c.412-.342.638-.778.638-1.23s-.227-.889-.638-1.23c-.878-.728-1.362-1.711-1.362-2.77s.483-2.042 1.362-2.77c.412-.342.638-.778.638-1.23s-.227-.889-.638-1.23c-.878-.728-1.362-1.711-1.362-2.77s.483-2.042 1.362-2.77l1.276 1.54c-.412.342-.638.778-.638 1.23s.227.889.638 1.23c.878.728 1.362 1.711 1.362 2.77s-.483 2.042-1.362 2.77c-.412.342-.638.778-.638 1.23s.227.889.638 1.23c.878.728 1.362 1.711 1.362 2.77s-.483 2.042-1.362 2.77c-.412.342-.638.778-.638 1.23s.227.889.638 1.23l-1.276 1.54zm4 0c-.878-.728-1.362-1.711-1.362-2.77s.483-2.042 1.362-2.77c.412-.342.638-.778.638-1.23s-.227-.889-.638-1.23c-.878-.728-1.362-1.711-1.362-2.77s.483-2.042 1.362-2.77c.412-.342.638-.778.638-1.23s-.227-.889-.638-1.23c-.878-.728-1.362-1.711-1.362-2.77s.483-2.042 1.362-2.77l1.276 1.54c-.412.342-.638.778-.638 1.23s.227.889.638 1.23c.878.728 1.362 1.711 1.362 2.77s-.483 2.042-1.362 2.77c-.412.342-.638.778-.638 1.23s.227.889.638 1.23c.878.728 1.362 1.711 1.362 2.77s-.483 2.042-1.362 2.77c-.412.342-.638.778-.638 1.23s.227.889.638 1.23l-1.276 1.54zm4 0c-.878-.728-1.362-1.711-1.362-2.77s.483-2.042 1.362-2.77c.412-.342.638-.778.638-1.23s-.227-.889-.638-1.23c-.878-.728-1.362-1.711-1.362-2.77s.483-2.042 1.362-2.77c.412-.342.638-.778.638-1.23s-.227-.889-.638-1.23c-.878-.728-1.362-1.711-1.362-2.77s.483-2.042 1.362-2.77l1.276 1.54c-.412.342-.638.778-.638 1.23s.227.889.638 1.23c.878.728 1.362 1.711 1.362 2.77s-.483 2.042-1.362 2.77c-.412.342-.638.778-.638 1.23s.227.889.638 1.23c.878.728 1.362 1.711 1.362 2.77s-.483 2.042-1.362 2.77c-.412.342-.638.778-.638 1.23s.227.889.638 1.23l-1.276 1.54zm4 0c-.878-.728-1.362-1.711-1.362-2.77s.483-2.042 1.362-2.77c.412-.342.638-.778.638-1.23s-.227-.889-.638-1.23c-.878-.728-1.362-1.711-1.362-2.77s.483-2.042 1.362-2.77c.412-.342.638-.778.638-1.23s-.227-.889-.638-1.23c-.878-.728-1.362-1.711-1.362-2.77s.483-2.042 1.362-2.77l1.276 1.54c-.412.342-.638.778-.638 1.23s.227.889.638 1.23c.878.728 1.362 1.711 1.362 2.77s-.483 2.042-1.362 2.77c-.412.342-.638.778-.638 1.23s.227.889.638 1.23c.878.728 1.362 1.711 1.362 2.77s-.483 2.042-1.362 2.77c-.412.342-.638.778-.638 1.23s.227.889.638 1.23l-1.276 1.54z" fill="#eeaf4b"></path>
    <ellipse cx="25.399" cy="32.558" rx="23.068" ry="5.568" fill="#fbd490"></ellipse>
    <path d="M34.562 36.399c-.683-.824-1.778-.824-2.461 0l-1.539-1.277c.728-.878 1.711-1.361 2.77-1.361s2.042.483 2.77 1.361l-1.54 1.277zm6-1c-.683-.824-1.778-.824-2.461 0l-1.539-1.277c.728-.878 1.711-1.361 2.77-1.361s2.042.483 2.77 1.361l-1.54 1.277zm4-2c-.683-.824-1.778-.824-2.461 0l-1.539-1.277c.728-.878 1.711-1.361 2.77-1.361s2.042.483 2.77 1.361l-1.54 1.277zm-6-1c-.683-.824-1.778-.824-2.461 0l-1.539-1.277c.728-.878 1.711-1.361 2.77-1.361s2.042.483 2.77 1.361l-1.54 1.277zm-6 1c-.683-.824-1.778-.824-2.461 0l-1.539-1.277c.728-.878 1.711-1.361 2.77-1.361s2.042.483 2.77 1.361l-1.54 1.277zm0-3c-.683-.824-1.778-.824-2.461 0l-1.539-1.277c.728-.878 1.711-1.361 2.77-1.361s2.042.483 2.77 1.361l-1.54 1.277zm-6 2c-.683-.824-1.778-.824-2.461 0l-1.539-1.277c.728-.878 1.711-1.361 2.77-1.361s2.042.483 2.77 1.361l-1.54 1.277zm1 4c-.683-.824-1.778-.824-2.461 0l-1.539-1.277c.728-.878 1.711-1.361 2.77-1.361s2.042.483 2.77 1.361l-1.54 1.277zm-6 0c-.683-.824-1.778-.824-2.461 0l-1.539-1.277c.728-.878 1.711-1.361 2.77-1.361s2.042.483 2.77 1.361l-1.54 1.277zm-12-1c-.683-.824-1.778-.824-2.461 0l-1.539-1.277c.728-.878 1.711-1.361 2.77-1.361s2.042.483 2.77 1.361l-1.54 1.277zm7 0c-.683-.824-1.778-.824-2.461 0l-1.539-1.277c.728-.878 1.711-1.361 2.77-1.361s2.042.483 2.77 1.361l-1.54 1.277zm3-3c-.683-.824-1.778-.824-2.461 0l-1.539-1.277c.728-.878 1.711-1.361 2.77-1.361s2.042.483 2.77 1.361l-1.54 1.277zm-8 0c-.683-.824-1.778-.824-2.461 0l-1.539-1.277c.728-.878 1.711-1.361 2.77-1.361s2.042.483 2.77 1.361l-1.54 1.277z" fill="#eeaf4b"></path>
    <path fill="#af7f58" d="M54.193 0l.277 1.98-43 6L11.192 6z"></path>
    <path d="M18.624 52.181c-9.44-1.46-11.3-13.42-11.3-13.42 2.865 1.45 5.293 2.767 6.198 4.954 3.225.168 4.927 1.206 4.384 4.283 8.688 2.048 8.378 3.64 5.943 4.859-1.55-.151-5.225-.676-5.225-.676z" fill="#ededed"></path>
  </symbol>
  <symbol xmlns="http://www.w3.org/2000/svg" viewBox="0 0 52.25 52.25" id="icon-dish-salad">
    <path d="M22.251 24.708s-.068 2.359 3.089 5.03c8.051 6.814 5.094 21.935-4.397 22.012h-9.602c-9.49-.076-12.447-15.198-4.396-22.012 3.157-2.672 3.089-5.03 3.089-5.03h12.217z" fill="#dae7ef"></path>
    <path d="M16.251 52.25h-4.909c-3.914-.031-7.16-2.568-8.687-6.787-1.701-4.7-1.185-11.745 3.967-16.106 2.903-2.457 2.912-4.617 2.912-4.639l-.006-.505.506-.005h12.732l-.015.512c0 .063.037 2.204 2.911 4.637 5.152 4.361 5.668 11.406 3.967 16.106-1.526 4.219-4.771 6.756-8.683 6.787h-4.695zm-5.764-27.042c-.148.893-.756 2.827-3.219 4.912-4.787 4.052-5.26 10.617-3.673 15.003 1.398 3.865 4.224 6.099 7.75 6.127h9.598c3.522-.028 6.348-2.262 7.746-6.127 1.587-4.386 1.115-10.951-3.673-15.003-2.462-2.085-3.069-4.02-3.218-4.912H10.487z" fill="#bbd7ea"></path>
    <path d="M12.165 24.708h-2.131c-1.1 0-2-.9-2-2s.9-2 2-2h12c1.1 0 2 .9 2 2s-.9 2-2 2h-9.869z" fill="#38454f"></path>
    <path d="M44.83 9.114l-.03-.027c-1.147-1.038-.836-2.85.401-3.78.487-.366.803-.947.803-1.599v-1c0-1.1-.9-2-2-2h-11c-1.1 0-2 .9-2 2v1c0 .665.33 1.254.835 1.616 1.157.83 1.624 2.426.702 3.511-.087.102-.184.2-.29.292-2.108 1.815-5.247 3.823-5.247 8.581v13.753c4.155 5.186 3.785 13.124.122 17.371.41 1.644 1.892 2.876 3.658 2.876h15.438a3.792 3.792 0 003.781-3.781V17.708c.001-4.772-3.099-6.774-5.173-8.594z" fill="#dae7ef"></path>
    <path d="M46.222 52.208H30.785a4.276 4.276 0 01-4.145-3.255l-.063-.251.169-.196c3.323-3.853 4.063-11.495-.134-16.732l-.109-.137V17.708c0-4.471 2.607-6.626 4.702-8.358.248-.205.489-.404.719-.602.087-.075.165-.154.236-.238.364-.429.395-.901.354-1.222-.072-.593-.435-1.175-.968-1.558a2.497 2.497 0 01-1.044-2.022v-1c0-1.379 1.121-2.5 2.5-2.5h11c1.379 0 2.5 1.121 2.5 2.5v1c0 .78-.375 1.527-1.003 1.998-.542.408-.884 1.033-.912 1.672-.024.522.17.998.546 1.338l-.304.398.33-.376c.23.203.475.408.726.619 2.057 1.729 4.617 3.883 4.617 8.351v30.22a4.283 4.283 0 01-4.28 4.28zm-18.543-3.259a3.273 3.273 0 003.105 2.259h15.438a3.284 3.284 0 003.281-3.28v-30.22c0-4.002-2.264-5.906-4.261-7.586a42.063 42.063 0 01-.742-.632l-.006-.006.336-.37-.348.359a2.66 2.66 0 01-.894-2.141c.042-.935.532-1.841 1.311-2.426a1.49 1.49 0 00.604-1.199v-1c0-.827-.673-1.5-1.5-1.5h-11c-.827 0-1.5.673-1.5 1.5v1c0 .477.234.929.627 1.21.757.543 1.271 1.384 1.378 2.248a2.559 2.559 0 01-.587 1.993 3.322 3.322 0 01-.345.347c-.234.201-.48.405-.734.615-2.033 1.681-4.339 3.587-4.339 7.587v13.579c3.916 5.032 3.987 13.008.176 17.663z" fill="#bbd7ea"></path>
    <path d="M27.914 13.75c-.551 1.075-.911 2.359-.911 3.958v13.753c4.155 5.187 3.785 13.124.122 17.371.41 1.644 1.892 2.876 3.658 2.876h15.438a3.792 3.792 0 003.781-3.781V17.708c0-1.6-.353-2.883-.894-3.958H27.914z" fill="#fff"></path>
    <path fill="#abcbdd" d="M38.506 18.665h12v26.171h-12zM12.463 33.75H3.274c-1.911 3.804-1.972 8.402-.513 12h9.702c1.1 0 2-.9 2-2v-8c0-1.1-.9-2-2-2z"></path>
    <path d="M46.222 52.208H30.785a4.276 4.276 0 01-4.145-3.255l-.063-.251.169-.196c3.323-3.853 4.063-11.495-.134-16.732l-.109-.137V17.708c0-4.471 2.607-6.626 4.702-8.358.248-.205.489-.404.719-.602.087-.075.165-.154.236-.238.364-.429.395-.901.354-1.222-.072-.593-.435-1.175-.968-1.558a2.497 2.497 0 01-1.044-2.022v-1c0-1.379 1.121-2.5 2.5-2.5h11c1.379 0 2.5 1.121 2.5 2.5v1c0 .78-.375 1.527-1.003 1.998-.542.408-.884 1.033-.912 1.672-.024.522.17.998.546 1.338l-.304.398.33-.376c.23.203.475.408.726.619 2.057 1.729 4.617 3.883 4.617 8.351v30.22a4.283 4.283 0 01-4.28 4.28zm-18.543-3.259a3.273 3.273 0 003.105 2.259h15.438a3.284 3.284 0 003.281-3.28v-30.22c0-4.002-2.264-5.906-4.261-7.586a42.063 42.063 0 01-.742-.632l-.006-.006.336-.37-.348.359a2.66 2.66 0 01-.894-2.141c.042-.935.532-1.841 1.311-2.426a1.49 1.49 0 00.604-1.199v-1c0-.827-.673-1.5-1.5-1.5h-11c-.827 0-1.5.673-1.5 1.5v1c0 .477.234.929.627 1.21.757.543 1.271 1.384 1.378 2.248a2.559 2.559 0 01-.587 1.993 3.322 3.322 0 01-.345.347c-.234.201-.48.405-.734.615-2.033 1.681-4.339 3.587-4.339 7.587v13.579c3.916 5.032 3.987 13.008.176 17.663z" fill="#bbd7ea"></path>
    <path d="M31.984 4.75h.02a2.382 2.382 0 01-2.375-2.375A2.382 2.382 0 0132.004 0h13.125a2.382 2.382 0 012.375 2.375 2.382 2.382 0 01-2.375 2.375H31.984z" fill="#38454f"></path>
  </symbol>
  <symbol xmlns="http://www.w3.org/2000/svg" viewBox="0 0 54.081 54.081" id="icon-dish-soup">
    <path d="M43.815 10.162l-1.954.54a5.265 5.265 0 00-4.432 4.432l-.54 1.954 1.954-.54a5.265 5.265 0 004.432-4.432l.54-1.954z" fill="#f9d70b"></path>
    <path d="M35.456 18.521l.993-3.598a6.23 6.23 0 015.202-5.201l3.597-.994-.994 3.598a6.228 6.228 0 01-5.201 5.201l-3.597.994zm6.925-6.925l-.374.096a4.24 4.24 0 00-3.59 3.59l-.096.373.374-.096a4.24 4.24 0 003.59-3.59l.096-.373z" fill="#eeaf4b"></path>
    <path d="M32.529 7.362l-1 1.763a5.265 5.265 0 000 6.268l1 1.763 1-1.763a5.265 5.265 0 000-6.268l-1-1.763z" fill="#f9d70b"></path>
    <path d="M32.529 19.183l-1.841-3.245a6.227 6.227 0 010-7.356l1.841-3.247 1.841 3.247a6.23 6.23 0 010 7.356l-1.841 3.245zm0-9.794l-.197.332a4.242 4.242 0 000 5.078l.196.331.196-.331a4.242 4.242 0 000-5.078l-.195-.332z" fill="#eeaf4b"></path>
    <path d="M46.566 21.399l-1.763-1a5.265 5.265 0 00-6.268 0l-1.763 1 1.763 1a5.265 5.265 0 006.268 0l1.763-1z" fill="#f9d70b"></path>
    <path d="M41.669 24.442c-1.287 0-2.574-.4-3.678-1.202l-3.246-1.841 3.246-1.841a6.224 6.224 0 017.356 0l3.247 1.841-3.247 1.841a6.245 6.245 0 01-3.678 1.202zm-2.871-3.043l.332.196a4.24 4.24 0 005.077 0l.332-.196-.332-.196a4.235 4.235 0 00-5.077 0l-.332.196z" fill="#eeaf4b"></path>
    <path d="M26.165 13.726l-1 1.763a5.265 5.265 0 000 6.268l1 1.763 1-1.763a5.265 5.265 0 000-6.268l-1-1.763z" fill="#f9d70b"></path>
    <path d="M26.165 25.548l-1.841-3.247a6.229 6.229 0 010-7.355l1.841-3.247 1.841 3.247a6.226 6.226 0 010 7.355l-1.841 3.247zm0-9.795l-.196.332a4.239 4.239 0 000 5.076l.196.332.197-.332a4.239 4.239 0 000-5.076l-.197-.332z" fill="#eeaf4b"></path>
    <path d="M40.202 27.763l-1.763-1a5.265 5.265 0 00-6.268 0l-1.763 1 1.763 1a5.265 5.265 0 006.268 0l1.763-1z" fill="#f9d70b"></path>
    <path d="M35.305 30.806c-1.288 0-2.574-.4-3.679-1.202l-3.246-1.841 3.246-1.841a6.23 6.23 0 017.356 0l3.245 1.841-3.245 1.841a6.247 6.247 0 01-3.677 1.202zm-2.87-3.043l.332.196a4.239 4.239 0 005.078 0l.332-.196-.332-.196a4.244 4.244 0 00-5.078 0l-.332.196z" fill="#eeaf4b"></path>
    <path d="M19.801 20.09l-1 1.763a5.265 5.265 0 000 6.268l1 1.763 1-1.763a5.265 5.265 0 000-6.268l-1-1.763z" fill="#f9d70b"></path>
    <path d="M19.801 31.912l-1.841-3.247a6.227 6.227 0 010-7.356l1.841-3.245 1.841 3.245a6.23 6.23 0 010 7.356l-1.841 3.247zm0-9.796l-.196.331a4.242 4.242 0 000 5.078l.197.332.196-.332a4.242 4.242 0 000-5.078l-.197-.331z" fill="#eeaf4b"></path>
    <path d="M33.838 34.127l-1.763-1a5.265 5.265 0 00-6.268 0l-1.763 1 1.763 1a5.265 5.265 0 006.268 0l1.763-1z" fill="#f9d70b"></path>
    <path d="M28.941 37.17a6.252 6.252 0 01-3.678-1.202l-3.246-1.841 3.246-1.841a6.23 6.23 0 017.356 0l3.246 1.841-3.246 1.841a6.252 6.252 0 01-3.678 1.202zm-2.87-3.043l.332.196a4.24 4.24 0 005.078 0l.332-.196-.332-.196a4.242 4.242 0 00-5.078 0l-.332.196z" fill="#eeaf4b"></path>
    <path d="M13.437 26.454l-1 1.763a5.265 5.265 0 000 6.268l1 1.763 1-1.763a5.265 5.265 0 000-6.268l-1-1.763z" fill="#f9d70b"></path>
    <path d="M13.437 38.274l-1.841-3.245a6.23 6.23 0 010-7.356l1.841-3.245 1.841 3.245a6.227 6.227 0 010 7.356l-1.841 3.245zm0-9.794l-.196.331a4.244 4.244 0 000 5.079l.196.331.196-.331a4.244 4.244 0 000-5.079l-.196-.331z" fill="#eeaf4b"></path>
    <path d="M27.474 40.491l-1.763-1a5.265 5.265 0 00-6.268 0l-1.763 1 1.763 1a5.265 5.265 0 006.268 0l1.763-1z" fill="#f9d70b"></path>
    <path d="M22.577 43.534c-1.287 0-2.574-.4-3.678-1.202l-3.246-1.841 3.246-1.841a6.226 6.226 0 017.357 0l3.246 1.841-3.246 1.841a6.25 6.25 0 01-3.679 1.202zm-2.87-3.043l.332.196a4.242 4.242 0 005.078 0l.332-.196-.332-.196a4.236 4.236 0 00-5.078 0l-.332.196z" fill="#eeaf4b"></path>
    <path d="M7.073 32.818l-1 1.763a5.265 5.265 0 000 6.268l1 1.763 1-1.763a5.265 5.265 0 000-6.268l-1-1.763z" fill="#f9d70b"></path>
    <path d="M7.073 44.64l-1.841-3.247a6.226 6.226 0 010-7.355l1.841-3.247 1.841 3.247a6.226 6.226 0 010 7.355L7.073 44.64zm0-9.795l-.197.332a4.239 4.239 0 000 5.076l.197.332.197-.332a4.239 4.239 0 000-5.076l-.197-.332z" fill="#eeaf4b"></path>
    <path d="M21.11 46.855l-1.763-1a5.265 5.265 0 00-6.268 0l-1.763 1 1.763 1a5.265 5.265 0 006.268 0l1.763-1z" fill="#f9d70b"></path>
    <path d="M16.213 49.897c-1.287 0-2.574-.4-3.678-1.202l-3.246-1.841 3.246-1.841a6.232 6.232 0 017.356 0l3.246 1.841-3.246 1.841a6.245 6.245 0 01-3.678 1.202zm-2.87-3.043l.332.196a4.236 4.236 0 005.078 0l.332-.196-.332-.196a4.244 4.244 0 00-5.078 0l-.332.196z" fill="#eeaf4b"></path>
    <path fill="#f9d70b" d="M36.719 17.209L1 52.928"></path>
    <path d="M1 53.928a.999.999 0 01-.707-1.707l35.719-35.719a.999.999 0 111.414 1.414L1.707 53.635a.997.997 0 01-.707.293z" fill="#eeaf4b"></path>
    <path fill="#f9d70b" d="M36.111 6.81l5.656-5.656"></path>
    <path d="M36.11 7.811a.999.999 0 01-.707-1.707L41.06.447a.999.999 0 111.414 1.414l-5.657 5.657a.997.997 0 01-.707.293z" fill="#eeaf4b"></path>
    <path fill="#f9d70b" d="M40.353 8.225l7.071-7.071"></path>
    <path d="M40.353 9.225a.999.999 0 01-.707-1.707L46.717.447a.999.999 0 111.414 1.414L41.06 8.932a.997.997 0 01-.707.293z" fill="#eeaf4b"></path>
    <path fill="#f9d70b" d="M46.01 13.882l7.071-7.072"></path>
    <path d="M46.01 14.882a.999.999 0 01-.707-1.707l7.071-7.071a.999.999 0 111.414 1.414l-7.071 7.071a.999.999 0 01-.707.293z" fill="#eeaf4b"></path>
    <path fill="#f9d70b" d="M46.717 7.518l6.364-6.364"></path>
    <path d="M46.717 8.518a.999.999 0 01-.707-1.707L52.374.447a.999.999 0 111.414 1.414l-6.364 6.364a.997.997 0 01-.707.293z" fill="#eeaf4b"></path>
    <path fill="#f9d70b" d="M47.424 18.124l5.657-5.657"></path>
    <path d="M47.424 19.124a.999.999 0 01-.707-1.707l5.657-5.656a.999.999 0 111.414 1.414l-5.657 5.656a.997.997 0 01-.707.293z" fill="#eeaf4b"></path>
  </symbol>
  <symbol xmlns="http://www.w3.org/2000/svg" viewBox="0 0 56.538 56.538" id="icon-ingredient-dairy">
    <path d="M34.685 22.808s12.342-7.316 20.178 3.022c0 0 2.032 2.35.47 4.6-1.537 2.212-4.968 1.742-6.676-.603-1.541-2.115-5.254-4.8-13.972-7.019z" fill="#88c057"></path>
    <path d="M34.685 22.808s7.506-12.152-2.145-19.301c0 0-3.185-2.863-6.062-1.844-2.676.947-2.746 4.678-.284 6.089 2.698 1.547 6.394 5.411 8.491 15.056zm19.919 3.658s.067.086.155.205c.257-.23.506-.478.732-.768 2.084-2.67.414-4.736.414-4.736-6.186-9.306-20.584.807-20.584.807.693.048 1.341.11 1.968.176 4.117-1.502 11.821-2.932 17.315 4.316z" fill="#88c057"></path>
    <path d="M32.541 3.507c7.445 5.514 4.681 14.002 3.028 17.596.003.081.009.154.012.235 0 0 10.275-14.236 1.555-19.836 0 0-2.779-2.377-5.999-.74a5.38 5.38 0 00-1.428 1.056c1.611.594 2.832 1.689 2.832 1.689z" fill="#a4e869"></path>
    <path d="M50.459 6.131c-3.647-2.363-8.276 1.205-8.276 1.205-.768.92-1.465 1.91-2.108 2.927-.638 4.649-3.667 9.674-5.173 11.934-.089.314-.164.589-.216.787 1.745-1.172 6.828-4.343 11.824-5.164 1.24-.822 2.422-1.725 3.451-2.705 5.515-5.251.498-8.984.498-8.984z" fill="#659c35"></path>
    <path d="M34.685 22.808s12.342-7.316 20.178 3.022c0 0 2.032 2.35.47 4.6-1.537 2.212-4.968 1.742-6.676-.603-1.541-2.115-5.254-4.8-13.972-7.019z" fill="#a4e869"></path>
    <path d="M35.376 21.701c-.281.547-.472.857-.472.857s.468-.276 1.272-.643a47.202 47.202 0 00-.8-.214z" fill="#f2681c"></path>
    <path d="M41.809 28.277c.421-1.172.395-2.334.132-3.429-1.879-.789-4.186-1.565-7.037-2.29-.691-3.177-1.556-5.716-2.501-7.762-1.303-.453-2.728-.614-4.17-.096C23.708 16.326 3.81 44.955.089 54.937c-.35.939.387 1.675 1.325 1.325 9.982-3.721 38.769-23.461 40.395-27.985z" fill="#ed8f20"></path>
    <g fill="#dd7017">
      <path d="M8.236 46.857a12.2 12.2 0 01-1.947-1.168 1 1 0 00-1.182 1.612c.718.527 1.481.985 2.267 1.36a1.001 1.001 0 00.862-1.804zm30.925-19.033c-2.046-.78-3.945-2.182-5.642-4.167a1 1 0 10-1.52 1.3c1.917 2.242 4.087 3.836 6.45 4.737a1.002 1.002 0 001.291-.579 1.002 1.002 0 00-.579-1.291zm-16.439-7.876a1 1 0 01.748.854c.179 1.632 1.022 3.747 2.505 4.792a1 1 0 11-1.154 1.634c-2.001-1.411-2.996-3.947-3.284-5.847"></path>
      <path d="M24.821 27.228a.997.997 0 001.394-.24 1 1 0 00-.24-1.394c-1.482-1.046-2.326-3.161-2.505-4.792a1 1 0 00-.748-.854c-.385.457-.779.931-1.185 1.432.288 1.901 1.283 4.437 3.284 5.848zm5.527 11.35c-1.89-.306-4.369-1.302-5.758-3.271a1.001 1.001 0 011.635-1.153c1.045 1.481 3.16 2.326 4.792 2.505a.99.99 0 01.856.782"></path>
      <path d="M31.018 36.659c-1.633-.179-3.748-1.023-4.792-2.505a1 1 0 00-1.635 1.153c1.389 1.969 3.868 2.965 5.758 3.271.519-.383 1.028-.761 1.525-1.136a.991.991 0 00-.856-.783zM14.756 30.41c.399.094.72.424.768.856.112 1.025.635 2.349 1.549 2.995a1 1 0 11-1.154 1.634c-1.328-.937-2.04-2.56-2.299-3.865"></path>
      <path d="M15.92 35.895a.999.999 0 101.154-1.634c-.915-.646-1.437-1.969-1.549-2.995a.992.992 0 00-.768-.856 227.29 227.29 0 00-1.136 1.62c.259 1.305.971 2.928 2.299 3.865zm2.104 11.152c-1.357-.177-3.244-.888-4.285-2.365a1 1 0 011.634-1.154c.646.915 1.969 1.437 2.994 1.549a1 1 0 01.885 1.103c-.003.031-.02.057-.026.087"></path>
      <path d="M18.367 45.078c-1.025-.112-2.349-.635-2.994-1.549a1 1 0 10-1.634 1.154c1.042 1.477 2.928 2.188 4.285 2.365.4-.257.801-.518 1.202-.779.006-.03.023-.056.026-.087a1 1 0 00-.885-1.104z"></path>
    </g>
  </symbol>
</svg>